<svg xmlns="http://www.w3.org/2000/svg" class="h-5 w-5 stroke-current stroke-15 "
    viewBox="0 0 24 24" stroke-linecap="round" stroke-linejoin="round">
    <path stroke="none" d="M0 0h24v24H0z" fill="none" stroke-width="1.5px"></path>
    <path d="M9 5h-2a2 2 0 0 0 -2 2v12a2 2 0 0 0 2 2h10a2 2 0 0 0 2 -2v-12a2 2 0 0 0 -2 -2h-2"
        fill="none" stroke-width="1.5px" stroke="black"></path>
    <path d="M9 3m0 2a2 2 0 0 1 2 -2h2a2 2 0 0 1 2 2v0a2 2 0 0 1 -2 2h-2a2 2 0 0 1 -2 -2z"
        fill="none" stroke-width="1.5px" stroke="black"></path>
</svg>